<?xml version="1.0" encoding="utf-8"?><svg height="20px" width="20px" class="heavyNWsvg" id="OSTALE_IKONE" xmlns="http://www.w3.org/2000/svg" viewBox="0 0 20.001 20"><style>.heavyNWsvg .st0{fill:#FFF}</style><path class="st0" d="M5.22 12.2v-.004a.43.43 0 0 1 .27-.395l4.523-1.81 1.845-4.557a.432.432 0 0 1 .797-.005l4.814 11.455a.43.43 0 0 1-.566.564l-11.422-4.85a.433.433 0 0 1-.262-.397z"/><path class="st0" d="M3.303 10.284a.43.43 0 0 1 .27-.4l4.523-1.81L9.94 3.515a.43.43 0 0 1 .8.324L8.824 8.567a.43.43 0 0 1-.24.238l-4.69 1.88a.43.43 0 0 1-.592-.4z"/><path class="st0" d="M1.323 8.304a.43.43 0 0 1 .27-.4l4.523-1.81L7.96 1.535a.43.43 0 0 1 .8.324L6.845 6.587a.43.43 0 0 1-.24.238l-4.69 1.88a.43.43 0 0 1-.593-.4z"/></svg>