<?xml version="1.0" encoding="utf-8"?><svg height="20px" width="20px" class="heavyNsvg" id="OSTALE_IKONE" xmlns="http://www.w3.org/2000/svg" viewBox="0 0 20.001 20"><style>.heavyNsvg .st0{fill:#FFF}</style><path class="st0" d="M5.023 6.7c0-.002.002-.003.003-.004a.43.43 0 0 1 .47-.088l4.478 1.917L14.5 6.607a.43.43 0 0 1 .567.56L10.373 18.67a.43.43 0 0 1-.8 0L4.93 7.164a.432.432 0 0 1 .095-.466z"/><path class="st0" d="M5.023 3.988a.43.43 0 0 1 .474-.09l4.478 1.916 4.527-1.918a.432.432 0 0 1 .336.794l-4.695 1.99a.43.43 0 0 1-.337 0L5.16 4.69a.43.43 0 0 1-.137-.702z"/><path class="st0" d="M5.023 1.19a.43.43 0 0 1 .474-.093l4.478 1.917 4.527-1.918a.432.432 0 0 1 .336.794l-4.695 1.99a.43.43 0 0 1-.337 0L5.16 1.89a.43.43 0 0 1-.137-.7z"/></svg>