<?xml version="1.0" encoding="utf-8"?><svg height="20px" width="20px" class="heavySsvg" id="OSTALE_IKONE" xmlns="http://www.w3.org/2000/svg" viewBox="0 0 20.001 20"><style>.heavySsvg .st0{fill:#FFF}</style><path class="st0" d="M14.974 13.5c0 .002-.002.003-.003.004a.43.43 0 0 1-.47.088l-4.477-1.917-4.527 1.918a.43.43 0 0 1-.566-.56L9.624 1.53a.43.43 0 0 1 .8 0l4.645 11.505a.432.432 0 0 1-.096.466z"/><path class="st0" d="M14.974 16.212a.43.43 0 0 1-.474.09l-4.478-1.916-4.527 1.918a.432.432 0 0 1-.565-.23.432.432 0 0 1 .23-.564l4.695-1.99a.43.43 0 0 1 .337 0l4.646 1.99a.43.43 0 0 1 .136.702z"/><path class="st0" d="M14.974 19.01a.43.43 0 0 1-.474.092l-4.478-1.917-4.527 1.918a.43.43 0 0 1-.335-.793l4.695-1.99a.43.43 0 0 1 .337 0l4.646 1.99a.43.43 0 0 1 .136.7z"/></svg>