<?xml version="1.0" encoding="utf-8"?><svg height="20px" width="20px" class="heavyEsvg" id="OSTALE_IKONE" xmlns="http://www.w3.org/2000/svg" viewBox="0 0 20.001 20"><style>.heavyEsvg .st0{fill:#FFF}</style><path class="st0" d="M13.246 5.05s.002 0 .003.002a.43.43 0 0 1 .087.47L11.42 10l1.918 4.527a.43.43 0 0 1-.56.566L1.276 10.4a.43.43 0 0 1 0-.8L12.78 4.954a.433.433 0 0 1 .466.095z"/><path class="st0" d="M15.956 5.05a.43.43 0 0 1 .09.473L14.132 10l1.92 4.527a.432.432 0 0 1-.795.336l-1.99-4.695a.43.43 0 0 1 0-.337l1.99-4.645a.43.43 0 0 1 .7-.136z"/><path class="st0" d="M18.756 5.05a.43.43 0 0 1 .09.473L16.93 10l1.918 4.527a.432.432 0 0 1-.794.336l-1.99-4.695a.43.43 0 0 1 0-.337l1.99-4.645a.43.43 0 0 1 .702-.136z"/></svg>