<?xml version="1.0" encoding="utf-8"?><svg height="20px" width="20px" class="heavySEsvg" id="OSTALE_IKONE" xmlns="http://www.w3.org/2000/svg" viewBox="0 0 20.001 20"><style>.heavySEsvg .st0{fill:#FFF}</style><path class="st0" d="M14.815 7.78v.004a.43.43 0 0 1-.27.395l-4.522 1.81-1.845 4.557a.432.432 0 0 1-.797.005L2.568 3.098a.43.43 0 0 1 .566-.564l11.42 4.85a.43.43 0 0 1 .263.396z"/><path class="st0" d="M16.732 9.696a.43.43 0 0 1-.27.4l-4.523 1.81-1.846 4.558a.43.43 0 0 1-.8-.324l1.914-4.727a.43.43 0 0 1 .24-.238l4.69-1.88a.43.43 0 0 1 .56.24.4.4 0 0 1 .034.16z"/><path class="st0" d="M18.71 11.676a.43.43 0 0 1-.27.4l-4.522 1.81-1.845 4.558a.43.43 0 0 1-.8-.324l1.914-4.727a.43.43 0 0 1 .24-.238l4.69-1.88a.43.43 0 0 1 .56.24.396.396 0 0 1 .034.16z"/></svg>