<?xml version="1.0" encoding="utf-8"?><svg height="20px" width="20px" class="heavySWsvg" id="OSTALE_IKONE" xmlns="http://www.w3.org/2000/svg" viewBox="0 0 20.001 20"><style>.heavySWsvg .st0{fill:#FFF}</style><path class="st0" d="M12.342 14.826h-.004a.43.43 0 0 1-.395-.27l-1.81-4.523L5.574 8.19a.43.43 0 0 1-.005-.797L17.025 2.58a.43.43 0 0 1 .564.564l-4.85 11.42a.433.433 0 0 1-.398.262z"/><path class="st0" d="M10.426 16.743a.43.43 0 0 1-.4-.27l-1.81-4.523-4.557-1.845a.43.43 0 0 1 .323-.8L8.71 11.22a.43.43 0 0 1 .238.238l1.88 4.692a.43.43 0 0 1-.24.56.407.407 0 0 1-.162.033z"/><path class="st0" d="M8.446 18.722a.43.43 0 0 1-.4-.27l-1.81-4.522-4.557-1.845a.43.43 0 0 1 .323-.8L6.73 13.2a.43.43 0 0 1 .238.24l1.88 4.69a.43.43 0 0 1-.402.592z"/></svg>