<?xml version="1.0" encoding="utf-8"?><svg height="20px" width="20px" class="heavyNEsvg" id="OSTALE_IKONE" xmlns="http://www.w3.org/2000/svg" viewBox="0 0 20.001 20"><style>.heavyNEsvg .st0{fill:#FFF}</style><path class="st0" d="M7.78 5.198h.005c.175.002.33.11.396.27L9.99 9.99l4.558 1.845a.432.432 0 0 1 .005.797L3.1 17.446a.43.43 0 0 1-.565-.565l4.85-11.42A.432.432 0 0 1 7.78 5.2z"/><path class="st0" d="M9.697 3.28a.43.43 0 0 1 .4.272l1.81 4.522 4.558 1.845a.43.43 0 0 1-.324.798l-4.726-1.913a.43.43 0 0 1-.238-.24l-1.88-4.692a.43.43 0 0 1 .4-.592z"/><path class="st0" d="M11.677 1.302a.43.43 0 0 1 .4.27l1.81 4.523 4.558 1.845a.43.43 0 0 1-.324.8l-4.726-1.914a.43.43 0 0 1-.238-.24l-1.88-4.69a.43.43 0 0 1 .24-.56.392.392 0 0 1 .16-.034z"/></svg>