<?xml version="1.0" encoding="utf-8"?><svg height="20px" width="20px" class="heavyWsvg" id="OSTALE_IKONE" xmlns="http://www.w3.org/2000/svg" viewBox="0 0 20.001 20"><style>.heavyWsvg .st0{fill:#FFF}</style><path class="st0" d="M6.602 14.975l-.003-.003a.43.43 0 0 1-.09-.47l1.918-4.478-1.92-4.527a.43.43 0 0 1 .56-.567l11.505 4.695a.43.43 0 0 1 0 .8L7.067 15.07a.43.43 0 0 1-.466-.095z"/><path class="st0" d="M3.89 14.975a.43.43 0 0 1-.09-.474l1.917-4.477L3.8 5.497a.432.432 0 0 1 .793-.336l1.99 4.696a.43.43 0 0 1 0 .337l-1.99 4.646a.43.43 0 0 1-.702.135z"/><path class="st0" d="M1.092 14.975a.43.43 0 0 1-.09-.474l1.916-4.477L1 5.497a.43.43 0 0 1 .793-.336l1.99 4.695a.43.43 0 0 1 0 .337l-1.99 4.646a.43.43 0 0 1-.7.135z"/></svg>