<?xml version="1.0" encoding="utf-8"?><svg height="20px" width="20px" class="modEsvg" id="OSTALE_IKONE" xmlns="http://www.w3.org/2000/svg" viewBox="0 0 20.001 20"><style>.modEsvg .st0{fill:#FFF}</style><path class="st0" d="M14.702 5.05s.002 0 .003.002a.43.43 0 0 1 .088.47L12.876 10l1.918 4.527a.43.43 0 0 1-.56.566L2.732 10.4a.43.43 0 0 1 .002-.8l11.504-4.646a.433.433 0 0 1 .466.095z"/><path class="st0" d="M17.412 5.05a.43.43 0 0 1 .09.473L15.587 10l1.918 4.527a.432.432 0 0 1-.794.336l-1.99-4.695a.43.43 0 0 1 0-.337l1.99-4.645a.43.43 0 0 1 .702-.136z"/></svg>