<?xml version="1.0" encoding="utf-8"?><svg height="20px" width="20px" class="modNEsvg" id="OSTALE_IKONE" xmlns="http://www.w3.org/2000/svg" viewBox="0 0 20.001 20"><style>.modNEsvg .st0{fill:#FFF}</style><path class="st0" d="M8.148 4.717h.004a.43.43 0 0 1 .395.27l1.81 4.523 4.558 1.845a.432.432 0 0 1 .005.797L3.466 16.964a.43.43 0 0 1-.564-.565l4.85-11.42a.432.432 0 0 1 .396-.263z"/><path class="st0" d="M10.064 2.8a.43.43 0 0 1 .4.27l1.81 4.523 4.558 1.845a.43.43 0 0 1-.324.8L11.78 8.323a.43.43 0 0 1-.237-.24L9.665 3.392a.43.43 0 0 1 .4-.59z"/></svg>