<?xml version="1.0" encoding="utf-8"?><svg height="20px" width="20px" class="modNWsvg" id="OSTALE_IKONE" xmlns="http://www.w3.org/2000/svg" viewBox="0 0 20.001 20"><style>.modNWsvg .st0{fill:#FFF}</style><path class="st0" d="M4.82 11.8v-.004a.43.43 0 0 1 .27-.395l4.522-1.81 1.845-4.557a.432.432 0 0 1 .797-.005l4.814 11.455a.43.43 0 0 1-.565.564l-11.42-4.85a.433.433 0 0 1-.263-.397z"/><path class="st0" d="M2.903 9.884a.43.43 0 0 1 .27-.4l4.523-1.81L9.54 3.115a.43.43 0 0 1 .8.324L8.424 8.167a.43.43 0 0 1-.24.238l-4.69 1.88a.43.43 0 0 1-.592-.4z"/></svg>