<?xml version="1.0" encoding="utf-8"?><svg height="20px" width="20px" class="modSEsvg" id="OSTALE_IKONE" xmlns="http://www.w3.org/2000/svg" viewBox="0 0 20.001 20"><style>.modSEsvg .st0{fill:#FFF}</style><path class="st0" d="M15.202 8.073v.004a.43.43 0 0 1-.27.395l-4.523 1.81-1.846 4.558a.432.432 0 0 1-.797.005L2.954 3.39a.43.43 0 0 1 .565-.563l11.418 4.85c.16.067.264.224.264.396z"/><path class="st0" d="M17.12 9.99a.43.43 0 0 1-.272.4l-4.522 1.81-1.845 4.557a.43.43 0 0 1-.798-.324l1.913-4.727a.43.43 0 0 1 .24-.238l4.69-1.88a.43.43 0 0 1 .56.24.4.4 0 0 1 .034.16z"/></svg>