<?xml version="1.0" encoding="utf-8"?><svg height="20px" width="20px" class="modSWsvg" id="OSTALE_IKONE" xmlns="http://www.w3.org/2000/svg" viewBox="0 0 20.001 20"><style>.modSWsvg .st0{fill:#FFF}</style><path class="st0" d="M11.856 15.137h-.004a.43.43 0 0 1-.395-.27l-1.81-4.523L5.088 8.5a.43.43 0 0 1-.006-.796L16.538 2.89a.43.43 0 0 1 .564.565l-4.85 11.42a.43.43 0 0 1-.396.262z"/><path class="st0" d="M9.94 17.054a.43.43 0 0 1-.4-.27L7.73 12.26 3.17 10.417a.43.43 0 0 1 .324-.8l4.727 1.914a.43.43 0 0 1 .238.24l1.88 4.69a.43.43 0 0 1-.24.56.4.4 0 0 1-.16.034z"/></svg>