<?xml version="1.0" encoding="utf-8"?><svg height="20px" width="20px" class="modWsvg" id="OSTALE_IKONE" xmlns="http://www.w3.org/2000/svg" viewBox="0 0 20.001 20"><style>.modWsvg .st0{fill:#FFF}</style><path class="st0" d="M5.3 14.975l-.003-.003a.43.43 0 0 1-.088-.47l1.916-4.478-1.92-4.527a.43.43 0 0 1 .56-.567l11.505 4.695a.43.43 0 0 1 0 .8L5.766 15.07a.43.43 0 0 1-.466-.095z"/><path class="st0" d="M2.59 14.975a.43.43 0 0 1-.092-.474l1.917-4.477-1.918-4.526a.432.432 0 0 1 .794-.336l1.99 4.696a.43.43 0 0 1 0 .337L3.29 14.84a.43.43 0 0 1-.7.135z"/></svg>