<?xml version="1.0" encoding="utf-8"?>
<!-- Generator: Adobe Illustrator 19.0.1, SVG Export Plug-In . SVG Version: 6.00 Build 0)  -->
<svg height="20px" width="20px" version="1.1" id="OSTALE_IKONE" xmlns="http://www.w3.org/2000/svg" xmlns:xlink="http://www.w3.org/1999/xlink" x="0px"
	 y="0px" viewBox="0 0 20.001 20" style="enable-background:new 0 0 20.001 20;" xml:space="preserve">
<g id="heavy-snow_1_">
	<path style="fill:#FFFFFF;" d="M9.967,8.621l2.288,1.376l-1.548,0.884c0.055,0.147,0.086,0.301,0.098,0.459l1.672-0.956v2.982
		l-1.984,1.983l0.316,0.316l1.668-1.668v2.138h0.446v-2.131l1.661,1.661l0.316-0.316l-1.977-1.976V10.39l2.591,1.524l0.689,2.657
		l0.432-0.112l-0.577-2.225l1.819,1.07l0.226-0.385l-1.886-1.109l2.232-0.605l-0.112-0.432l-2.664,0.717l-2.531-1.489l2.628-1.517
		l2.536,0.719l0.11-0.433l-2.092-0.606l1.781-1.028l-0.223-0.387l-1.649,0.952l0.551-2.175L16.35,5.417l-0.658,2.596l-2.77,1.599
		V6.619l1.977-1.976l-0.316-0.316l-1.661,1.661V3.863h-0.446v2.132l-1.668-1.668l-0.316,0.316l1.984,1.984V9.61L9.563,7.866
		L9.967,8.621z"/>
</g>
<g id="heavy-rain_3_">
	<g>
		<path style="fill:#FFFFFF;" d="M9.303,10.087C7.822,7.396,6.645,6.412,5.79,3.63c-0.855,2.782-2.032,3.767-3.513,6.457
			c-1.439,2.611,0.693,5.896,3.513,5.896C8.61,15.984,10.741,12.699,9.303,10.087z"/>
	</g>
</g>
</svg>
