<?xml version="1.0" encoding="UTF-8"?>
<!DOCTYPE svg PUBLIC "-//W3C//DTD SVG 1.1//EN" "http://www.w3.org/Graphics/SVG/1.1/DTD/svg11.dtd">
<!-- Creator: CorelDRAW X7 -->
<svg xmlns="http://www.w3.org/2000/svg" xml:space="preserve" width="7.0332mm" height="7.0333mm" version="1.1" style="shape-rendering:geometricPrecision; text-rendering:geometricPrecision; image-rendering:optimizeQuality; fill-rule:evenodd; clip-rule:evenodd"
viewBox="0 0 123 123"
 xmlns:xlink="http://www.w3.org/1999/xlink">
 <defs>
  <style type="text/css">
   <![CDATA[
    .str0 {stroke:#FEFEFE;stroke-width:1.33142}
    .fil0 {fill:#FEFEFE;fill-rule:nonzero}
   ]]>
  </style>
 </defs>
 <g id="Layer_x0020_1">
  <metadata id="CorelCorpID_0Corel-Layer"/>
  <g id="_800539472">
   <path class="fil0 str0" d="M61 122c-16,0 -31,-6 -43,-18 -11,-11 -17,-26 -17,-43 0,-16 6,-31 17,-43 12,-11 27,-17 43,-17 17,0 32,6 43,17 12,12 18,27 18,43 0,17 -6,32 -18,43 -11,12 -26,18 -43,18zm0 -7c15,0 28,-6 38,-16 10,-10 16,-23 16,-38 0,-14 -6,-27 -16,-37 -10,-10 -23,-16 -38,-16 -14,0 -27,6 -37,16 -10,10 -16,23 -16,37 0,15 6,28 16,38 10,10 23,16 37,16zm-35 -50l5 0c3,16 14,25 31,25 16,0 27,-9 30,-25l5 0c-1,11 -5,19 -11,25 -6,6 -15,9 -25,9 -9,0 -18,-3 -24,-9 -6,-6 -10,-14 -11,-25zm16 -13c-3,0 -5,-1 -7,-3 -2,-2 -2,-4 -2,-7 0,-3 0,-5 2,-7 2,-2 4,-2 7,-2 3,0 5,0 7,2 2,2 3,4 3,7 0,3 -1,5 -3,7 -2,2 -4,3 -7,3zm39 0c-3,0 -5,-1 -7,-3 -2,-2 -3,-4 -3,-7 0,-3 1,-5 3,-7 2,-2 4,-2 7,-2 2,0 5,0 7,2 1,2 2,4 2,7 0,3 -1,5 -2,7 -2,2 -5,3 -7,3z"/>
  </g>
 </g>
</svg>
