<?xml version="1.0" encoding="utf-8"?><svg height="20px" width="20px" class="padavine_snegsvg" id="OSTALE_IKONE" xmlns="http://www.w3.org/2000/svg" viewBox="0 0 20.001 20"><style>.padavine_snegsvg .st0{fill:#FFF}</style><path class="st0" d="M15.616 9.202l.11-.432-2.092-.606 1.78-1.028-.223-.387-1.648.95.55-2.174-.432-.11-.658 2.596-2.77 1.6V6.62l1.977-1.977-.316-.316-1.66 1.66V3.864h-.448v2.133l-1.668-1.67-.315.317 1.983 1.984V9.61L7.41 8.213l-.708-2.796-.433.11.6 2.367-2.037-1.197-.226.385 1.925 1.132-2.195.556.11.432 2.632-.667 2.485 1.462L7 11.477l-2.616-.705-.112.432 2.18.59-1.854 1.07.223.388 1.857-1.072-.59 2.28.43.11.702-2.703 2.566-1.482v2.982L7.803 15.35l.315.316 1.668-1.668v2.138h.447v-2.13l1.66 1.66.316-.315-1.977-1.976V10.39l2.59 1.524.69 2.657.43-.11-.576-2.227 1.82 1.07.225-.384-1.886-1.11 2.232-.606-.112-.432-2.664.717-2.53-1.49 2.627-1.516z" id="heavy-snow_1_"/></svg>