<?xml version="1.0" encoding="UTF-8"?>
<!DOCTYPE svg PUBLIC "-//W3C//DTD SVG 1.1//EN" "http://www.w3.org/Graphics/SVG/1.1/DTD/svg11.dtd">
<!-- Creator: CorelDRAW X7 -->
<svg xmlns="http://www.w3.org/2000/svg" xml:space="preserve" width="7.0332mm" height="7.0241mm" version="1.1" style="shape-rendering:geometricPrecision; text-rendering:geometricPrecision; image-rendering:optimizeQuality; fill-rule:evenodd; clip-rule:evenodd"
viewBox="0 0 119 119"
 xmlns:xlink="http://www.w3.org/1999/xlink">
 <defs>
  <style type="text/css">
   <![CDATA[
    .str0 {stroke:#FEFEFE;stroke-width:1.28567}
    .fil0 {fill:#FEFEFE;fill-rule:nonzero}
   ]]>
  </style>
 </defs>
 <g id="Layer_x0020_1">
  <metadata id="CorelCorpID_0Corel-Layer"/>
  <g id="_911355840">
   <path class="fil0 str0" d="M59 118c-16,0 -30,-6 -41,-17 -12,-12 -17,-26 -17,-42 0,-16 5,-30 17,-41 11,-12 25,-17 41,-17 17,0 30,5 42,17 11,11 17,25 17,41 0,16 -6,30 -17,42 -12,11 -25,17 -42,17zm0 -8c15,0 27,-5 37,-15 10,-10 15,-22 15,-36 0,-14 -5,-26 -15,-36 -10,-10 -22,-15 -37,-15 -14,0 -26,5 -36,15 -10,10 -15,22 -15,36 0,14 5,26 15,36 10,10 22,15 36,15zm-29 -20l-5 0c1,-11 5,-19 11,-25 6,-6 14,-9 23,-9 10,0 18,3 24,9 6,6 10,14 11,25l-5 0c-3,-17 -13,-25 -30,-25 -16,0 -26,8 -29,25zm11 -40c-3,0 -5,-1 -7,-3 -2,-2 -3,-4 -3,-6 0,-3 1,-5 3,-7 2,-2 4,-3 7,-3 2,0 4,1 6,3 2,2 3,4 3,7 0,2 -1,4 -3,6 -2,2 -4,3 -6,3zm37 0c-3,0 -5,-1 -7,-3 -1,-2 -2,-4 -2,-6 0,-3 1,-5 2,-7 2,-2 4,-3 7,-3 3,0 5,1 7,3 1,2 2,4 2,7 0,2 -1,4 -2,6 -2,2 -4,3 -7,3z"/>
  </g>
 </g>
</svg>
